<svg width="150" height="150" viewBox="0 0 150 150" fill="none" xmlns="http://www.w3.org/2000/svg">
<rect width="150" height="150" rx="75" fill="black"/>
<mask id="path-2-outside-1_782_1634" maskUnits="userSpaceOnUse" x="7" y="46" width="131" height="58" fill="black">
<rect fill="white" x="7" y="46" width="131" height="58"/>
<path d="M46.3951 91.7074H26.7608L23.6133 101H10.199L29.2338 48.3921H44.0719L63.1067 101H49.5425L46.3951 91.7074ZM43.0977 81.8154L36.5779 62.5558L30.1331 81.8154H43.0977ZM133.619 50.0408C134.968 50.0908 135.642 50.4405 135.642 51.09C135.642 51.5896 135.218 52.239 134.368 53.0384C133.569 53.7878 132.62 54.4623 131.52 55.0618C130.471 55.6613 129.622 55.9611 128.972 55.9611H126.874C127.773 60.0078 128.223 63.4051 128.223 66.1529C128.223 67.252 128.148 68.3012 127.998 69.3004C127.699 71.3987 126.25 73.3471 123.652 75.1457C125.75 76.2448 126.974 77.7186 127.324 79.5672C127.674 81.3657 127.848 83.464 127.848 85.8621C127.848 87.7606 127.748 90.4085 127.549 93.8058C128.148 93.7058 129.047 93.506 130.246 93.2062C130.846 93.0564 131.396 92.9814 131.895 92.9814C132.894 92.9814 133.644 93.2312 134.143 93.7308C134.693 94.2304 134.968 94.8799 134.968 95.6793C134.968 96.5785 134.618 97.4528 133.919 98.3022C133.269 99.1515 132.37 99.776 131.221 100.176C128.123 101.175 124.601 101.749 120.654 101.899C119.705 101.949 118.831 101.699 118.031 101.15C117.282 100.65 116.907 99.9508 116.907 99.0516C116.957 96.1539 116.982 91.8074 116.982 86.012C116.982 85.6123 117.007 85.2376 117.057 84.8879C117.107 84.5382 117.132 84.1885 117.132 83.8387C117.132 83.0394 116.932 82.3649 116.532 81.8154C116.183 81.4157 115.184 80.966 113.535 80.4664C111.936 79.9169 110.962 79.5921 110.612 79.4922C109.663 79.0925 109.188 78.468 109.188 77.6187C109.188 76.8693 109.463 76.1199 110.013 75.3705C110.612 74.5712 111.237 73.9966 111.886 73.6469L113.76 72.6727C114.809 72.1231 115.583 71.6485 116.083 71.2488C116.632 70.8491 117.032 70.3246 117.282 69.6751C117.582 68.9756 117.707 68.0764 117.657 66.9772C117.357 62.8805 116.707 58.6589 115.708 54.3124C115.658 54.1625 115.633 53.9627 115.633 53.7129C115.633 52.4139 116.408 51.3398 117.956 50.4904C119.505 49.5912 121.054 49.1415 122.603 49.1415C123.002 49.1415 123.302 49.1665 123.502 49.2165C126.45 49.6661 129.822 49.9409 133.619 50.0408Z"/>
<path d="M77.1433 100.925C74.7952 100.875 73.6211 100.151 73.6211 98.7518C73.6211 98.0524 73.9459 97.278 74.5953 96.4287C75.2948 95.5793 76.1441 94.8549 77.1433 94.2554C78.1925 93.6559 79.2166 93.3561 80.2158 93.3561L82.6139 93.506C82.564 92.5568 82.4391 91.1329 82.2392 89.2344C81.9395 86.8363 81.7896 85.0128 81.7896 83.7638C81.7896 83.0644 81.8146 82.5398 81.8645 82.1901C81.9644 80.991 82.3391 79.8419 82.9886 78.7428C83.6881 77.5937 84.6123 76.3447 85.7614 74.9958C82.6139 74.3463 80.6905 73.0973 79.991 71.2488C79.7912 70.6993 79.6913 70.0748 79.6913 69.3753C79.6913 68.576 79.8411 67.4269 80.1409 65.9281C80.1909 65.6783 80.2658 65.3036 80.3657 64.804C80.4656 64.2544 80.5156 63.8048 80.5156 63.4551C80.6155 61.9563 80.6655 60.8571 80.6655 60.1577C80.6655 58.6589 80.5905 57.1601 80.4407 55.6613C78.742 55.5114 76.1691 55.3865 72.7218 55.2866C71.3729 55.2366 70.6985 54.8619 70.6985 54.1625C70.6985 53.6629 71.0981 53.0384 71.8975 52.289C72.6969 51.5396 73.6211 50.8901 74.6703 50.3406C75.7194 49.741 76.5688 49.4413 77.2182 49.4413H80.5156C82.7638 49.4413 84.4125 49.3414 85.4616 49.1415C85.7614 49.0916 86.1861 49.0666 86.7356 49.0666C88.8839 49.0666 90.058 49.8909 90.2578 51.5396C90.5576 54.1375 90.7074 56.7105 90.7074 59.2584C90.7074 60.8072 90.6825 61.9563 90.6325 62.7057C90.5825 63.0554 90.4826 63.6049 90.3327 64.3543C90.2328 65.1037 90.1829 65.7282 90.1829 66.2278C90.1829 66.7274 90.2578 67.1021 90.4077 67.3519C90.8074 67.9515 91.6567 68.2512 92.9556 68.2512C94.3046 68.2013 95.029 68.1763 95.1289 68.1763C96.1781 68.2262 97.0524 68.526 97.7518 69.0756C98.4512 69.5752 98.801 70.2246 98.801 71.024C98.801 71.6735 98.5512 72.323 98.0516 72.9724L96.1781 75.3705C94.8791 76.9692 93.9049 78.3681 93.2554 79.5672C92.6559 80.7162 92.3561 82.0901 92.3561 83.6889C92.3561 84.4383 92.4061 85.3126 92.506 86.3118C92.6059 87.311 92.6809 88.0354 92.7308 88.485C93.0306 90.5833 93.1805 92.207 93.1805 93.3561C93.1805 94.1555 93.1055 94.9798 92.9556 95.8291C92.7558 96.8283 92.2812 97.7276 91.5318 98.527C90.7824 99.2764 89.9081 99.801 88.9089 100.101C87.0104 100.7 84.5873 101 81.6397 101L77.1433 100.925Z"/>
</mask>
<path d="M46.3951 91.7074H26.7608L23.6133 101H10.199L29.2338 48.3921H44.0719L63.1067 101H49.5425L46.3951 91.7074ZM43.0977 81.8154L36.5779 62.5558L30.1331 81.8154H43.0977ZM133.619 50.0408C134.968 50.0908 135.642 50.4405 135.642 51.09C135.642 51.5896 135.218 52.239 134.368 53.0384C133.569 53.7878 132.62 54.4623 131.52 55.0618C130.471 55.6613 129.622 55.9611 128.972 55.9611H126.874C127.773 60.0078 128.223 63.4051 128.223 66.1529C128.223 67.252 128.148 68.3012 127.998 69.3004C127.699 71.3987 126.25 73.3471 123.652 75.1457C125.75 76.2448 126.974 77.7186 127.324 79.5672C127.674 81.3657 127.848 83.464 127.848 85.8621C127.848 87.7606 127.748 90.4085 127.549 93.8058C128.148 93.7058 129.047 93.506 130.246 93.2062C130.846 93.0564 131.396 92.9814 131.895 92.9814C132.894 92.9814 133.644 93.2312 134.143 93.7308C134.693 94.2304 134.968 94.8799 134.968 95.6793C134.968 96.5785 134.618 97.4528 133.919 98.3022C133.269 99.1515 132.37 99.776 131.221 100.176C128.123 101.175 124.601 101.749 120.654 101.899C119.705 101.949 118.831 101.699 118.031 101.15C117.282 100.65 116.907 99.9508 116.907 99.0516C116.957 96.1539 116.982 91.8074 116.982 86.012C116.982 85.6123 117.007 85.2376 117.057 84.8879C117.107 84.5382 117.132 84.1885 117.132 83.8387C117.132 83.0394 116.932 82.3649 116.532 81.8154C116.183 81.4157 115.184 80.966 113.535 80.4664C111.936 79.9169 110.962 79.5921 110.612 79.4922C109.663 79.0925 109.188 78.468 109.188 77.6187C109.188 76.8693 109.463 76.1199 110.013 75.3705C110.612 74.5712 111.237 73.9966 111.886 73.6469L113.76 72.6727C114.809 72.1231 115.583 71.6485 116.083 71.2488C116.632 70.8491 117.032 70.3246 117.282 69.6751C117.582 68.9756 117.707 68.0764 117.657 66.9772C117.357 62.8805 116.707 58.6589 115.708 54.3124C115.658 54.1625 115.633 53.9627 115.633 53.7129C115.633 52.4139 116.408 51.3398 117.956 50.4904C119.505 49.5912 121.054 49.1415 122.603 49.1415C123.002 49.1415 123.302 49.1665 123.502 49.2165C126.45 49.6661 129.822 49.9409 133.619 50.0408Z" fill="#52FFDC"/>
<path d="M77.1433 100.925C74.7952 100.875 73.6211 100.151 73.6211 98.7518C73.6211 98.0524 73.9459 97.278 74.5953 96.4287C75.2948 95.5793 76.1441 94.8549 77.1433 94.2554C78.1925 93.6559 79.2166 93.3561 80.2158 93.3561L82.6139 93.506C82.564 92.5568 82.4391 91.1329 82.2392 89.2344C81.9395 86.8363 81.7896 85.0128 81.7896 83.7638C81.7896 83.0644 81.8146 82.5398 81.8645 82.1901C81.9644 80.991 82.3391 79.8419 82.9886 78.7428C83.6881 77.5937 84.6123 76.3447 85.7614 74.9958C82.6139 74.3463 80.6905 73.0973 79.991 71.2488C79.7912 70.6993 79.6913 70.0748 79.6913 69.3753C79.6913 68.576 79.8411 67.4269 80.1409 65.9281C80.1909 65.6783 80.2658 65.3036 80.3657 64.804C80.4656 64.2544 80.5156 63.8048 80.5156 63.4551C80.6155 61.9563 80.6655 60.8571 80.6655 60.1577C80.6655 58.6589 80.5905 57.1601 80.4407 55.6613C78.742 55.5114 76.1691 55.3865 72.7218 55.2866C71.3729 55.2366 70.6985 54.8619 70.6985 54.1625C70.6985 53.6629 71.0981 53.0384 71.8975 52.289C72.6969 51.5396 73.6211 50.8901 74.6703 50.3406C75.7194 49.741 76.5688 49.4413 77.2182 49.4413H80.5156C82.7638 49.4413 84.4125 49.3414 85.4616 49.1415C85.7614 49.0916 86.1861 49.0666 86.7356 49.0666C88.8839 49.0666 90.058 49.8909 90.2578 51.5396C90.5576 54.1375 90.7074 56.7105 90.7074 59.2584C90.7074 60.8072 90.6825 61.9563 90.6325 62.7057C90.5825 63.0554 90.4826 63.6049 90.3327 64.3543C90.2328 65.1037 90.1829 65.7282 90.1829 66.2278C90.1829 66.7274 90.2578 67.1021 90.4077 67.3519C90.8074 67.9515 91.6567 68.2512 92.9556 68.2512C94.3046 68.2013 95.029 68.1763 95.1289 68.1763C96.1781 68.2262 97.0524 68.526 97.7518 69.0756C98.4512 69.5752 98.801 70.2246 98.801 71.024C98.801 71.6735 98.5512 72.323 98.0516 72.9724L96.1781 75.3705C94.8791 76.9692 93.9049 78.3681 93.2554 79.5672C92.6559 80.7162 92.3561 82.0901 92.3561 83.6889C92.3561 84.4383 92.4061 85.3126 92.506 86.3118C92.6059 87.311 92.6809 88.0354 92.7308 88.485C93.0306 90.5833 93.1805 92.207 93.1805 93.3561C93.1805 94.1555 93.1055 94.9798 92.9556 95.8291C92.7558 96.8283 92.2812 97.7276 91.5318 98.527C90.7824 99.2764 89.9081 99.801 88.9089 100.101C87.0104 100.7 84.5873 101 81.6397 101L77.1433 100.925Z" fill="white"/>
<path d="M46.3951 91.7074L48.1824 91.102L47.7483 89.8203H46.3951V91.7074ZM26.7608 91.7074V89.8203H25.4076L24.9734 91.102L26.7608 91.7074ZM23.6133 101V102.887H24.9665L25.4007 101.605L23.6133 101ZM10.199 101L8.42453 100.358L7.50942 102.887H10.199V101ZM29.2338 48.3921V46.505H27.9098L27.4593 47.7501L29.2338 48.3921ZM44.0719 48.3921L45.8464 47.7501L45.396 46.505H44.0719V48.3921ZM63.1067 101V102.887H65.7963L64.8812 100.358L63.1067 101ZM49.5425 101L47.7552 101.605L48.1893 102.887H49.5425V101ZM43.0977 81.8154V83.7025H45.7288L44.8852 81.2103L43.0977 81.8154ZM36.5779 62.5558L38.3654 61.9507L36.5676 56.64L34.7884 61.9569L36.5779 62.5558ZM30.1331 81.8154L28.3435 81.2165L27.5117 83.7025H30.1331V81.8154ZM46.3951 91.7074V89.8203H26.7608V91.7074V93.5945H46.3951V91.7074ZM26.7608 91.7074L24.9734 91.102L21.8259 100.395L23.6133 101L25.4007 101.605L28.5481 92.3128L26.7608 91.7074ZM23.6133 101V99.1129H10.199V101V102.887H23.6133V101ZM10.199 101L11.9736 101.642L31.0083 49.0342L29.2338 48.3921L27.4593 47.7501L8.42453 100.358L10.199 101ZM29.2338 48.3921V50.2792H44.0719V48.3921V46.505H29.2338V48.3921ZM44.0719 48.3921L42.2974 49.0342L61.3322 101.642L63.1067 101L64.8812 100.358L45.8464 47.7501L44.0719 48.3921ZM63.1067 101V99.1129H49.5425V101V102.887H63.1067V101ZM49.5425 101L51.3299 100.395L48.1824 91.102L46.3951 91.7074L44.6077 92.3128L47.7552 101.605L49.5425 101ZM43.0977 81.8154L44.8852 81.2103L38.3654 61.9507L36.5779 62.5558L34.7905 63.1609L41.3102 82.4205L43.0977 81.8154ZM36.5779 62.5558L34.7884 61.9569L28.3435 81.2165L30.1331 81.8154L31.9226 82.4142L38.3675 63.1546L36.5779 62.5558ZM30.1331 81.8154V83.7025H43.0977V81.8154V79.9283H30.1331V81.8154ZM77.1433 100.925L77.1032 102.812L77.1118 102.812L77.1433 100.925ZM74.5953 96.4287L73.1386 95.229L73.117 95.2553L73.0963 95.2823L74.5953 96.4287ZM77.1433 94.2554L76.207 92.6169L76.1896 92.6269L76.1724 92.6372L77.1433 94.2554ZM80.2158 93.3561L80.3336 91.4727L80.2748 91.469H80.2158V93.3561ZM82.6139 93.506L82.4962 95.3894L84.6097 95.5215L84.4984 93.4068L82.6139 93.506ZM82.2392 89.2344L84.1159 89.0369L84.114 89.0186L84.1117 89.0004L82.2392 89.2344ZM81.8645 82.1901L83.7326 82.4569L83.7405 82.402L83.7451 82.3468L81.8645 82.1901ZM82.9886 78.7428L81.3767 77.7616L81.3702 77.7722L81.364 77.7828L82.9886 78.7428ZM85.7614 74.9958L87.1979 76.2195L89.2658 73.7921L86.1428 73.1477L85.7614 74.9958ZM79.991 71.2488L78.2175 71.8937L78.2217 71.9052L78.226 71.9166L79.991 71.2488ZM80.1409 65.9281L78.2904 65.558L78.2904 65.558L80.1409 65.9281ZM80.3657 64.804L82.2162 65.1741L82.2194 65.1578L82.2224 65.1416L80.3657 64.804ZM80.5156 63.4551L78.6327 63.3295L78.6285 63.3922V63.4551H80.5156ZM80.4407 55.6613L82.3184 55.4735L82.1629 53.9188L80.6065 53.7815L80.4407 55.6613ZM72.7218 55.2866L72.652 57.1724L72.6596 57.1727L72.6672 57.1729L72.7218 55.2866ZM74.6703 50.3406L75.5459 52.0122L75.5765 51.9962L75.6065 51.979L74.6703 50.3406ZM85.4616 49.1415L85.1514 47.2801L85.1299 47.2837L85.1085 47.2877L85.4616 49.1415ZM90.2578 51.5396L92.1325 51.3233L92.1312 51.3125L90.2578 51.5396ZM90.6325 62.7057L92.5006 62.9725L92.5107 62.9021L92.5154 62.8312L90.6325 62.7057ZM90.3327 64.3543L88.4823 63.9842L88.4703 64.0443L88.4622 64.1049L90.3327 64.3543ZM90.4077 67.3519L88.7895 68.3228L88.8126 68.3613L88.8375 68.3987L90.4077 67.3519ZM92.9556 68.2512V70.1383H92.9906L93.0255 70.137L92.9556 68.2512ZM95.1289 68.1763L95.2187 66.2913L95.1738 66.2892H95.1289V68.1763ZM97.7518 69.0756L96.5859 70.5594L96.6198 70.5861L96.6549 70.6111L97.7518 69.0756ZM98.0516 72.9724L99.5386 74.1342L99.543 74.1286L99.5473 74.123L98.0516 72.9724ZM96.1781 75.3705L97.6427 76.5605L97.654 76.5465L97.6651 76.5323L96.1781 75.3705ZM93.2554 79.5672L91.5961 78.6684L91.5891 78.6813L91.5823 78.6943L93.2554 79.5672ZM92.506 86.3118L90.6283 86.4995L90.6283 86.4995L92.506 86.3118ZM92.7308 88.485L90.8553 88.6934L90.8585 88.7227L90.8627 88.7519L92.7308 88.485ZM92.9556 95.8291L94.8061 96.1992L94.8103 96.1782L94.814 96.1571L92.9556 95.8291ZM91.5318 98.527L92.8662 99.8614L92.8877 99.8398L92.9085 99.8176L91.5318 98.527ZM88.9089 100.101L88.3666 98.2932L88.3536 98.2971L88.3406 98.3012L88.9089 100.101ZM81.6397 101L81.6083 102.887L81.624 102.887H81.6397V101ZM77.1433 100.925L77.1834 99.0384C76.1378 99.0161 75.6571 98.8398 75.4926 98.7383C75.4367 98.7038 75.462 98.7058 75.4927 98.7613C75.5228 98.8157 75.5082 98.8315 75.5082 98.7518H73.6211H71.734C71.734 100.095 72.3572 101.239 73.5107 101.95C74.5203 102.573 75.8007 102.784 77.1032 102.812L77.1433 100.925ZM73.6211 98.7518H75.5082C75.5082 98.6347 75.5708 98.2597 76.0944 97.575L74.5953 96.4287L73.0963 95.2823C72.3209 96.2963 71.734 97.4701 71.734 98.7518H73.6211ZM74.5953 96.4287L76.052 97.6283C76.6067 96.9548 77.2886 96.3689 78.1142 95.8736L77.1433 94.2554L76.1724 92.6372C74.9996 93.3409 73.9829 94.2039 73.1386 95.229L74.5953 96.4287ZM77.1433 94.2554L78.0796 95.8939C78.9031 95.4232 79.6074 95.2432 80.2158 95.2432V93.3561V91.469C78.8258 91.469 77.4818 91.8885 76.207 92.6169L77.1433 94.2554ZM80.2158 93.3561L80.0981 95.2395L82.4962 95.3894L82.6139 93.506L82.7316 91.6226L80.3336 91.4727L80.2158 93.3561ZM82.6139 93.506L84.4984 93.4068C84.4458 92.4064 84.3165 90.9424 84.1159 89.0369L82.2392 89.2344L80.3625 89.432C80.5616 91.3234 80.6822 92.7071 80.7294 93.6052L82.6139 93.506ZM82.2392 89.2344L84.1117 89.0004C83.8145 86.6224 83.6767 84.8925 83.6767 83.7638H81.7896H79.9025C79.9025 85.1331 80.0644 87.0503 80.3667 89.4685L82.2392 89.2344ZM81.7896 83.7638H83.6767C83.6767 83.085 83.7023 82.6695 83.7326 82.4569L81.8645 82.1901L79.9964 81.9232C79.9268 82.41 79.9025 83.0437 79.9025 83.7638H81.7896ZM81.8645 82.1901L83.7451 82.3468C83.8199 81.4486 84.0995 80.5722 84.6133 79.7028L82.9886 78.7428L81.364 77.7828C80.5787 79.1116 80.1089 80.5335 79.9839 82.0333L81.8645 82.1901ZM82.9886 78.7428L84.6006 79.724C85.2347 78.6822 86.0946 77.5147 87.1979 76.2195L85.7614 74.9958L84.3249 73.7721C83.13 75.1747 82.1414 76.5053 81.3767 77.7616L82.9886 78.7428ZM85.7614 74.9958L86.1428 73.1477C83.2192 72.5444 82.1103 71.5174 81.756 70.581L79.991 71.2488L78.226 71.9166C79.2706 74.6772 82.0086 76.1483 85.38 76.844L85.7614 74.9958ZM79.991 71.2488L81.7645 70.6039C81.6529 70.2971 81.5784 69.8968 81.5784 69.3753H79.6913H77.8042C77.8042 70.2527 77.9294 71.1014 78.2175 71.8937L79.991 71.2488ZM79.6913 69.3753H81.5784C81.5784 68.7663 81.6982 67.764 81.9913 66.2982L80.1409 65.9281L78.2904 65.558C77.9841 67.0898 77.8042 68.3856 77.8042 69.3753H79.6913ZM80.1409 65.9281L81.9913 66.2982C82.0413 66.0484 82.1162 65.6737 82.2162 65.1741L80.3657 64.804L78.5153 64.4339C78.4153 64.9335 78.3404 65.3082 78.2904 65.558L80.1409 65.9281ZM80.3657 64.804L82.2224 65.1416C82.3321 64.5381 82.4027 63.9643 82.4027 63.4551H80.5156H78.6285C78.6285 63.6452 78.5992 63.9708 78.5091 64.4664L80.3657 64.804ZM80.5156 63.4551L82.3985 63.5806C82.4988 62.0761 82.5526 60.924 82.5526 60.1577H80.6655H78.7784C78.7784 60.7903 78.7322 61.8365 78.6327 63.3295L80.5156 63.4551ZM80.6655 60.1577H82.5526C82.5526 58.5959 82.4745 57.0344 82.3184 55.4735L80.4407 55.6613L78.5629 55.8491C78.7066 57.2858 78.7784 58.7219 78.7784 60.1577H80.6655ZM80.4407 55.6613L80.6065 53.7815C78.8501 53.6265 76.2315 53.5004 72.7765 53.4003L72.7218 55.2866L72.6672 57.1729C76.1067 57.2726 78.6339 57.3963 80.2748 57.5411L80.4407 55.6613ZM72.7218 55.2866L72.7917 53.4008C72.5309 53.3911 72.3465 53.367 72.2242 53.3414C72.0978 53.3148 72.0787 53.2951 72.1208 53.3185C72.1704 53.3461 72.3053 53.435 72.4231 53.6227C72.5467 53.8196 72.5856 54.0201 72.5856 54.1625H70.6985H68.8114C68.8114 55.2797 69.4269 56.1394 70.2878 56.6177C71.012 57.02 71.872 57.1435 72.652 57.1724L72.7218 55.2866ZM70.6985 54.1625H72.5856C72.5856 54.408 72.4939 54.4832 72.5877 54.3367C72.6735 54.2026 72.8538 53.9792 73.1882 53.6657L71.8975 52.289L70.6068 50.9123C70.1418 51.3482 69.7226 51.8118 69.4088 52.3022C69.1029 52.7802 68.8114 53.4174 68.8114 54.1625H70.6985ZM71.8975 52.289L73.1882 53.6657C73.8535 53.0419 74.6356 52.489 75.5459 52.0122L74.6703 50.3406L73.7946 48.6689C72.6066 49.2912 71.5402 50.0373 70.6068 50.9123L71.8975 52.289ZM74.6703 50.3406L75.6065 51.979C76.5776 51.4241 77.0733 51.3284 77.2182 51.3284V49.4413V47.5542C76.0642 47.5542 74.8613 48.0579 73.734 48.7021L74.6703 50.3406ZM77.2182 49.4413V51.3284H80.5156V49.4413V47.5542H77.2182V49.4413ZM80.5156 49.4413V51.3284C82.7823 51.3284 84.5807 51.2303 85.8147 50.9953L85.4616 49.1415L85.1085 47.2877C84.2443 47.4524 82.7453 47.5542 80.5156 47.5542V49.4413ZM85.4616 49.1415L85.7719 51.0029C85.9183 50.9785 86.2212 50.9537 86.7356 50.9537V49.0666V47.1795C86.1509 47.1795 85.6045 47.2046 85.1514 47.2801L85.4616 49.1415ZM86.7356 49.0666V50.9537C87.6039 50.9537 87.9958 51.1259 88.143 51.2293C88.2215 51.2844 88.3377 51.3812 88.3844 51.7667L90.2578 51.5396L92.1312 51.3125C91.9781 50.0493 91.4073 48.9096 90.3118 48.1404C89.2849 47.4194 88.0156 47.1795 86.7356 47.1795V49.0666ZM90.2578 51.5396L88.3831 51.7559C88.6748 54.2839 88.8203 56.7846 88.8203 59.2584H90.7074H92.5945C92.5945 56.6363 92.4403 53.9911 92.1325 51.3233L90.2578 51.5396ZM90.7074 59.2584H88.8203C88.8203 60.7994 88.7952 61.8965 88.7496 62.5801L90.6325 62.7057L92.5154 62.8312C92.5698 62.016 92.5945 60.8149 92.5945 59.2584H90.7074ZM90.6325 62.7057L88.7644 62.4388C88.7223 62.7332 88.6313 63.2393 88.4823 63.9842L90.3327 64.3543L92.1832 64.7244C92.334 63.9706 92.4428 63.3776 92.5006 62.9725L90.6325 62.7057ZM90.3327 64.3543L88.4622 64.1049C88.3562 64.8997 88.2958 65.6141 88.2958 66.2278H90.1829H92.07C92.07 65.8423 92.1094 65.3078 92.2033 64.6037L90.3327 64.3543ZM90.1829 66.2278H88.2958C88.2958 66.8545 88.3788 67.6383 88.7895 68.3228L90.4077 67.3519L92.0259 66.381C92.0595 66.4371 92.077 66.4802 92.0849 66.502C92.0927 66.5236 92.0926 66.5291 92.0895 66.5135C92.0825 66.4785 92.07 66.3889 92.07 66.2278H90.1829ZM90.4077 67.3519L88.8375 68.3987C89.7929 69.8318 91.5197 70.1383 92.9556 70.1383V68.2512V66.3641C92.4338 66.3641 92.1275 66.3016 91.9725 66.2469C91.8352 66.1984 91.8998 66.188 91.9778 66.3052L90.4077 67.3519ZM92.9556 68.2512L93.0255 70.137C93.6995 70.1121 94.2159 70.0934 94.5757 70.081C94.7558 70.0748 94.8949 70.0702 94.994 70.0672C95.1083 70.0637 95.1391 70.0634 95.1289 70.0634V68.1763V66.2892C94.9828 66.2892 94.2006 66.3167 92.8858 66.3654L92.9556 68.2512ZM95.1289 68.1763L95.0391 70.0612C95.7694 70.096 96.2475 70.2935 96.5859 70.5594L97.7518 69.0756L98.9177 67.5917C97.8572 66.7585 96.5867 66.3565 95.2187 66.2913L95.1289 68.1763ZM97.7518 69.0756L96.6549 70.6111C96.8086 70.7209 96.8599 70.8001 96.8771 70.832C96.8917 70.8592 96.9139 70.9098 96.9139 71.024H98.801H100.688C100.688 69.5633 100 68.3625 98.8487 67.54L97.7518 69.0756ZM98.801 71.024H96.9139C96.9139 71.1588 96.869 71.4146 96.5558 71.8219L98.0516 72.9724L99.5473 74.123C100.233 73.2313 100.688 72.1881 100.688 71.024H98.801ZM98.0516 72.9724L96.5645 71.8107L94.691 74.2087L96.1781 75.3705L97.6651 76.5323L99.5386 74.1342L98.0516 72.9724ZM96.1781 75.3705L94.7135 74.1805C93.374 75.8291 92.3218 77.3286 91.5961 78.6684L93.2554 79.5672L94.9147 80.466C95.488 79.4076 96.3842 78.1094 97.6427 76.5605L96.1781 75.3705ZM93.2554 79.5672L91.5823 78.6943C90.8131 80.1686 90.469 81.856 90.469 83.6889H92.3561H94.2432C94.2432 82.3242 94.4987 81.2639 94.9285 80.4401L93.2554 79.5672ZM92.3561 83.6889H90.469C90.469 84.5179 90.5241 85.4574 90.6283 86.4995L92.506 86.3118L94.3837 86.124C94.2881 85.1677 94.2432 84.3586 94.2432 83.6889H92.3561ZM92.506 86.3118L90.6283 86.4995C90.7283 87.4994 90.8041 88.2327 90.8553 88.6934L92.7308 88.485L94.6064 88.2766C94.5576 87.8381 94.4836 87.1225 94.3837 86.124L92.506 86.3118ZM92.7308 88.485L90.8627 88.7519C91.1585 90.8223 91.2934 92.3417 91.2934 93.3561H93.1805H95.0676C95.0676 92.0724 94.9027 90.3444 94.5989 88.2181L92.7308 88.485ZM93.1805 93.3561H91.2934C91.2934 94.0373 91.2295 94.7517 91.0973 95.5012L92.9556 95.8291L94.814 96.1571C94.9815 95.2079 95.0676 94.2737 95.0676 93.3561H93.1805ZM92.9556 95.8291L91.1052 95.459C90.9796 96.0872 90.6827 96.6735 90.1551 97.2363L91.5318 98.527L92.9085 99.8176C93.8797 98.7817 94.532 97.5695 94.8061 96.1992L92.9556 95.8291ZM91.5318 98.527L90.1974 97.1926C89.6652 97.7248 89.0618 98.0847 88.3666 98.2932L88.9089 100.101L89.4511 101.908C90.7544 101.517 91.8996 100.828 92.8662 99.8614L91.5318 98.527ZM88.9089 100.101L88.3406 98.3012C86.6914 98.822 84.4779 99.1129 81.6397 99.1129V101V102.887C84.6968 102.887 87.3294 102.578 89.4771 101.9L88.9089 100.101ZM81.6397 101L81.6711 99.1132L77.1747 99.0382L77.1433 100.925L77.1118 102.812L81.6083 102.887L81.6397 101ZM133.619 50.0408L133.689 48.155L133.679 48.1546L133.668 48.1544L133.619 50.0408ZM134.368 53.0384L135.659 54.4151L135.662 54.4126L134.368 53.0384ZM131.52 55.0618L130.617 53.4051L130.6 53.414L130.584 53.4233L131.52 55.0618ZM126.874 55.9611V54.074H124.522L125.032 56.3704L126.874 55.9611ZM127.998 69.3004L126.132 69.0204L126.13 69.0335L127.998 69.3004ZM123.652 75.1457L122.578 73.5941L120.013 75.3698L122.776 76.8173L123.652 75.1457ZM127.324 79.5672L125.47 79.918L125.471 79.9273L127.324 79.5672ZM127.549 93.8058L125.665 93.6949L125.526 96.056L127.859 95.6672L127.549 93.8058ZM130.246 93.2062L130.704 95.037L130.704 95.037L130.246 93.2062ZM134.143 93.7308L132.809 95.0652L132.841 95.097L132.874 95.1272L134.143 93.7308ZM133.919 98.3022L132.462 97.1025L132.44 97.1288L132.42 97.1558L133.919 98.3022ZM131.221 100.176L131.8 101.972L131.82 101.965L131.841 101.958L131.221 100.176ZM120.654 101.899L120.583 100.014L120.569 100.014L120.555 100.015L120.654 101.899ZM118.031 101.15L119.1 99.5948L119.089 99.5872L119.078 99.5797L118.031 101.15ZM116.907 99.0516L115.02 99.019L115.02 99.0353V99.0516H116.907ZM117.057 84.8879L118.925 85.1548L118.925 85.1548L117.057 84.8879ZM116.532 81.8154L118.059 80.7054L118.009 80.6367L117.953 80.5727L116.532 81.8154ZM113.535 80.4664L112.921 82.251L112.954 82.2623L112.988 82.2724L113.535 80.4664ZM110.612 79.4922L109.88 81.2314L109.985 81.2755L110.094 81.3067L110.612 79.4922ZM110.013 75.3705L108.503 74.2383L108.497 74.2464L108.491 74.2546L110.013 75.3705ZM111.886 73.6469L111.016 71.9726L111.003 71.9789L110.992 71.9854L111.886 73.6469ZM113.76 72.6727L114.63 74.3469L114.635 74.3443L113.76 72.6727ZM116.083 71.2488L114.973 69.7227L114.938 69.7482L114.904 69.7752L116.083 71.2488ZM117.282 69.6751L115.547 68.9317L115.533 68.9644L115.521 68.9976L117.282 69.6751ZM117.657 66.9772L119.542 66.8915L119.541 66.8655L119.539 66.8395L117.657 66.9772ZM115.708 54.3124L117.547 53.8896L117.527 53.8014L117.498 53.7156L115.708 54.3124ZM117.956 50.4904L118.864 52.1451L118.884 52.134L118.904 52.1224L117.956 50.4904ZM123.502 49.2165L123.044 51.0472L123.13 51.0686L123.217 51.082L123.502 49.2165ZM133.619 50.0408L133.549 51.9266C133.815 51.9365 134.007 51.9599 134.138 51.9858C134.274 52.0126 134.303 52.034 134.268 52.0158C134.228 51.9952 134.084 51.9108 133.952 51.7148C133.809 51.5034 133.755 51.2733 133.755 51.09H135.642H137.529C137.529 50.5819 137.391 50.0645 137.08 49.6033C136.779 49.1575 136.382 48.8608 136.005 48.6653C135.297 48.2982 134.458 48.1835 133.689 48.155L133.619 50.0408ZM135.642 51.09H133.755C133.755 50.8221 133.858 50.7445 133.744 50.9191C133.643 51.0735 133.439 51.321 133.075 51.6642L134.368 53.0384L135.662 54.4126C136.146 53.9564 136.579 53.4795 136.903 52.9845C137.214 52.5096 137.529 51.8574 137.529 51.09H135.642ZM134.368 53.0384L133.078 51.6617C132.41 52.2875 131.595 52.8715 130.617 53.4051L131.52 55.0618L132.424 56.7185C133.644 56.053 134.728 55.2881 135.659 54.4151L134.368 53.0384ZM131.52 55.0618L130.584 53.4233C129.613 53.9782 129.117 54.074 128.972 54.074V55.9611V57.8482C130.127 57.8482 131.329 57.3444 132.457 56.7002L131.52 55.0618ZM128.972 55.9611V54.074H126.874V55.9611V57.8482H128.972V55.9611ZM126.874 55.9611L125.032 56.3704C125.915 60.3433 126.336 63.5934 126.336 66.1529H128.223H130.11C130.11 63.2168 129.632 59.6723 128.716 55.5517L126.874 55.9611ZM128.223 66.1529H126.336C126.336 67.1664 126.267 68.1216 126.132 69.0204L127.998 69.3004L129.864 69.5803C130.029 68.4808 130.11 67.3376 130.11 66.1529H128.223ZM127.998 69.3004L126.13 69.0335C125.935 70.4017 124.956 71.9475 122.578 73.5941L123.652 75.1457L124.726 76.6973C127.543 74.7468 129.462 72.3957 129.866 69.5673L127.998 69.3004ZM123.652 75.1457L122.776 76.8173C124.509 77.7248 125.254 78.7796 125.47 79.918L127.324 79.5672L129.178 79.2164C128.694 76.6577 126.992 74.7648 124.527 73.474L123.652 75.1457ZM127.324 79.5672L125.471 79.9273C125.792 81.5774 125.961 83.5502 125.961 85.8621H127.848H129.735C129.735 83.3779 129.555 81.154 129.176 79.207L127.324 79.5672ZM127.848 85.8621H125.961C125.961 87.7056 125.864 90.3106 125.665 93.6949L127.549 93.8058L129.432 93.9166C129.633 90.5063 129.735 87.8156 129.735 85.8621H127.848ZM127.549 93.8058L127.859 95.6672C128.536 95.5543 129.495 95.3392 130.704 95.037L130.246 93.2062L129.789 91.3755C128.6 91.6728 127.76 91.8573 127.238 91.9443L127.549 93.8058ZM130.246 93.2062L130.704 95.037C131.188 94.9161 131.581 94.8685 131.895 94.8685V92.9814V91.0943C131.21 91.0943 130.504 91.1966 129.789 91.3755L130.246 93.2062ZM131.895 92.9814V94.8685C132.603 94.8685 132.788 95.0443 132.809 95.0652L134.143 93.7308L135.478 92.3964C134.499 91.4181 133.185 91.0943 131.895 91.0943V92.9814ZM134.143 93.7308L132.874 95.1272C132.998 95.2396 133.081 95.3661 133.081 95.6793H134.968H136.855C136.855 94.3937 136.388 93.2212 135.413 92.3345L134.143 93.7308ZM134.968 95.6793H133.081C133.081 96.0494 132.947 96.513 132.462 97.1025L133.919 98.3022L135.375 99.5018C136.289 98.3927 136.855 97.1077 136.855 95.6793H134.968ZM133.919 98.3022L132.42 97.1558C132.024 97.6726 131.45 98.0978 130.601 98.3933L131.221 100.176L131.841 101.958C133.289 101.454 134.514 100.63 135.418 99.4485L133.919 98.3022ZM131.221 100.176L130.641 98.3797C127.739 99.316 124.392 99.8689 120.583 100.014L120.654 101.899L120.726 103.785C124.81 103.63 128.508 103.034 131.8 101.972L131.221 100.176ZM120.654 101.899L120.555 100.015C120.03 100.042 119.565 99.9141 119.1 99.5948L118.031 101.15L116.962 102.705C118.096 103.485 119.38 103.856 120.753 103.784L120.654 101.899ZM118.031 101.15L119.078 99.5797C118.853 99.4295 118.794 99.3187 118.794 99.0516H116.907H115.02C115.02 100.583 115.711 101.871 116.984 102.72L118.031 101.15ZM116.907 99.0516L118.794 99.0841C118.844 96.1695 118.869 91.8098 118.869 86.012H116.982H115.095C115.095 91.8049 115.07 96.1382 115.02 99.019L116.907 99.0516ZM116.982 86.012H118.869C118.869 85.6902 118.889 85.4055 118.925 85.1548L117.057 84.8879L115.189 84.621C115.125 85.0697 115.095 85.5344 115.095 86.012H116.982ZM117.057 84.8879L118.925 85.1548C118.988 84.7176 119.019 84.2787 119.019 83.8387H117.132H115.245C115.245 84.0983 115.226 84.3588 115.189 84.621L117.057 84.8879ZM117.132 83.8387H119.019C119.019 82.7131 118.732 81.6316 118.059 80.7054L116.532 81.8154L115.006 82.9253C115.132 83.0982 115.245 83.3657 115.245 83.8387H117.132ZM116.532 81.8154L117.953 80.5727C117.494 80.0481 116.834 79.7 116.295 79.4575C115.692 79.1863 114.946 78.9221 114.082 78.6604L113.535 80.4664L112.988 82.2724C113.773 82.5104 114.35 82.7208 114.746 82.8993C114.944 82.988 115.07 83.0572 115.143 83.1032C115.226 83.1555 115.189 83.146 115.112 83.058L116.532 81.8154ZM113.535 80.4664L114.148 78.6818C112.572 78.1399 111.54 77.7948 111.131 77.6777L110.612 79.4922L110.094 81.3067C110.384 81.3895 111.3 81.6938 112.921 82.251L113.535 80.4664ZM110.612 79.4922L111.345 77.753C111.082 77.6424 111.031 77.5615 111.047 77.5822C111.055 77.5937 111.067 77.6136 111.074 77.6351C111.08 77.655 111.075 77.6536 111.075 77.6187H109.188H107.301C107.301 78.4196 107.534 79.1976 108.042 79.8659C108.532 80.5112 109.193 80.9424 109.88 81.2314L110.612 79.4922ZM109.188 77.6187H111.075C111.075 77.3585 111.164 76.9911 111.534 76.4865L110.013 75.3705L108.491 74.2546C107.762 75.2488 107.301 76.3801 107.301 77.6187H109.188ZM110.013 75.3705L111.522 76.5028C112.013 75.8489 112.442 75.491 112.781 75.3084L111.886 73.6469L110.992 71.9854C110.032 72.5023 109.212 73.2934 108.503 74.2383L110.013 75.3705ZM111.886 73.6469L112.757 75.3212L114.63 74.3469L113.76 72.6727L112.889 70.9984L111.016 71.9726L111.886 73.6469ZM113.76 72.6727L114.635 74.3443C115.718 73.7774 116.619 73.2363 117.262 72.7224L116.083 71.2488L114.904 69.7752C114.547 70.0607 113.9 70.4688 112.884 71.001L113.76 72.6727ZM116.083 71.2488L117.193 72.775C118.044 72.1558 118.666 71.3332 119.043 70.3525L117.282 69.6751L115.521 68.9976C115.398 69.3159 115.221 69.5425 114.973 69.7227L116.083 71.2488ZM117.282 69.6751L119.016 70.4184C119.467 69.3676 119.599 68.1575 119.542 66.8915L117.657 66.9772L115.771 67.0629C115.814 67.9952 115.696 68.5837 115.547 68.9317L117.282 69.6751ZM117.657 66.9772L119.539 66.8395C119.231 62.6391 118.566 58.322 117.547 53.8896L115.708 54.3124L113.869 54.7352C114.848 58.9958 115.482 63.122 115.774 67.1149L117.657 66.9772ZM115.708 54.3124L117.498 53.7156C117.511 53.7521 117.517 53.7795 117.521 53.7952C117.524 53.811 117.525 53.8185 117.524 53.816C117.524 53.8137 117.523 53.8041 117.522 53.7862C117.521 53.7683 117.52 53.7441 117.52 53.7129H115.633H113.746C113.746 54.0619 113.778 54.4885 113.918 54.9091L115.708 54.3124ZM115.633 53.7129H117.52C117.52 53.3459 117.671 52.7991 118.864 52.1451L117.956 50.4904L117.049 48.8358C115.144 49.8804 113.746 51.4819 113.746 53.7129H115.633ZM117.956 50.4904L118.904 52.1224C120.21 51.3638 121.436 51.0286 122.603 51.0286V49.1415V47.2544C120.672 47.2544 118.8 47.8186 117.009 48.8585L117.956 50.4904ZM122.603 49.1415V51.0286C122.766 51.0286 122.886 51.0338 122.97 51.0408C123.061 51.0483 123.077 51.0554 123.044 51.0472L123.502 49.2165L123.96 47.3857C123.529 47.278 123.041 47.2544 122.603 47.2544V49.1415ZM123.502 49.2165L123.217 51.082C126.26 51.5462 129.714 51.8258 133.569 51.9272L133.619 50.0408L133.668 48.1544C129.93 48.056 126.639 47.786 123.786 47.3509L123.502 49.2165Z" fill="black" mask="url(#path-2-outside-1_782_1634)"/>
<path d="M99.9766 81.5H100.92L107.525 89.0484H104.694L99.9766 92.8226V81.5Z" fill="#D9D9D9"/>
<path d="M109.928 91.9265H106.366C106.302 91.9265 106.242 91.9587 106.207 92.0125C106.172 92.0661 106.167 92.1338 106.193 92.1921L108.915 98.2566L105.75 99.3796L102.978 93.114C102.955 93.0623 102.91 93.0236 102.855 93.0085C102.801 92.9935 102.742 93.0032 102.696 93.0359L99.2197 95.4998V80.1023L109.928 91.9265ZM100.289 82.864H100.101V93.4529C100.101 93.5234 100.14 93.5885 100.203 93.6208C100.266 93.6529 100.341 93.6477 100.398 93.6072L102.197 92.3318L103.269 91.575L103.803 92.7527V92.7537L106.168 98.1296C106.208 98.221 106.313 98.265 106.406 98.2302L107.551 97.8054C107.6 97.7872 107.639 97.7492 107.659 97.7009C107.679 97.6526 107.679 97.5982 107.657 97.5505L105.393 92.5496L104.72 91.0535H107.523C107.598 91.0534 107.665 91.0093 107.695 90.9412C107.726 90.873 107.713 90.7933 107.663 90.738L100.43 82.7371L100.289 82.864Z" fill="white" stroke="black" stroke-width="0.377419" stroke-linejoin="round"/>
<path d="M100.164 82.6322L107.524 90.7467V90.9354H104.504L107.524 97.729L106.391 98.1064H106.203L103.372 91.5016L100.164 93.5774V82.6322Z" fill="black"/>
</svg>
